<?xml version="1.0" encoding="UTF-8" standalone="no"?>
<!-- Created with Inkscape (http://www.inkscape.org/) -->

<svg
   xmlns:dc="http://purl.org/dc/elements/1.1/"
   xmlns:cc="http://creativecommons.org/ns#"
   xmlns:rdf="http://www.w3.org/1999/02/22-rdf-syntax-ns#"
   xmlns:svg="http://www.w3.org/2000/svg"
   xmlns="http://www.w3.org/2000/svg"
   xmlns:xlink="http://www.w3.org/1999/xlink"
   xmlns:sodipodi="http://sodipodi.sourceforge.net/DTD/sodipodi-0.dtd"
   xmlns:inkscape="http://www.inkscape.org/namespaces/inkscape"
   width="232.32684mm"
   height="52.47747mm"
   viewBox="0 0 232.32684 52.47747"
   version="1.1"
   id="svg8"
   inkscape:version="0.92.1 r15371"
   sodipodi:docname="schedulesu_logo3.svg"
   inkscape:export-filename="C:\Users\thetr\Desktop\schedulesu.png"
   inkscape:export-xdpi="96"
   inkscape:export-ydpi="96">
  <sodipodi:namedview
     id="base"
     pagecolor="#ffffff"
     bordercolor="#666666"
     borderopacity="1.0"
     inkscape:pageopacity="0.0"
     inkscape:pageshadow="2"
     inkscape:zoom="1.3081475"
     inkscape:cx="427.61411"
     inkscape:cy="27.333699"
     inkscape:document-units="mm"
     inkscape:current-layer="text5065"
     showgrid="false"
     inkscape:window-width="1920"
     inkscape:window-height="1027"
     inkscape:window-x="-8"
     inkscape:window-y="-8"
     inkscape:window-maximized="1"
     showguides="true"
     inkscape:guide-bbox="true" />
  <defs
     id="defs2">
    <linearGradient
       inkscape:collect="always"
       id="linearGradient4511">
      <stop
         style="stop-color:#9ce25a;stop-opacity:1;"
         offset="0"
         id="stop4507" />
      <stop
         style="stop-color:#1fadb1;stop-opacity:1"
         offset="1"
         id="stop4509" />
    </linearGradient>
    <linearGradient
       inkscape:collect="always"
       xlink:href="#linearGradient4511"
       id="linearGradient4515"
       gradientUnits="userSpaceOnUse"
       x1="156.97591"
       y1="221.15669"
       x2="178.77031"
       y2="168.52052"
       gradientTransform="translate(61.890953,-163.42448)" />
  </defs>
  <metadata
     id="metadata5">
    <rdf:RDF>
      <cc:Work
         rdf:about="">
        <dc:format>image/svg+xml</dc:format>
        <dc:type
           rdf:resource="http://purl.org/dc/dcmitype/StillImage" />
        <dc:title></dc:title>
      </cc:Work>
    </rdf:RDF>
  </metadata>
  <g
     id="layer1"
     inkscape:groupmode="layer"
     inkscape:label="Layer 1"
     transform="translate(-8.4680669,-5.3169858)">
    <g
       aria-label="Schedules"
       transform="scale(0.98714851,1.0130188)"
       style="font-style:normal;font-variant:normal;font-weight:normal;font-stretch:normal;font-size:26.04730225px;line-height:1.25;font-family:'Century Gothic';-inkscape-font-specification:'Century Gothic';text-align:center;letter-spacing:0px;word-spacing:0px;text-anchor:middle;fill:#99de0d;fill-opacity:1;stroke:none;stroke-width:0.4883869"
       id="text5065">
      <path
         d="m 25.803789,29.075308 q 0,-2.549371 -2.583822,-2.549371 l -6.890191,-0.01722 q -7.751465,0 -7.6997886,6.821289 -0.017225,6.976319 7.7859156,6.941868 h 1.670872 q 2.54937,0.03445 2.54937,1.739773 -0.03445,1.756999 -2.601047,1.756999 h -6.959093 q -2.4804685,0.01722 -2.497694,2.7044 0.017226,2.394341 2.51492,2.377116 l 6.976318,0.01722 q 7.665338,-0.01722 7.699789,-6.890191 0.01722,-6.769613 -7.699789,-6.890191 h -1.670871 q -2.652724,0 -2.652724,-1.653646 0,-1.756999 2.635498,-1.756999 h 6.907417 q 2.463243,-0.05168 2.51492,-2.601047 z"
         style="font-style:normal;font-variant:normal;font-weight:normal;font-stretch:normal;font-size:35.27777863px;line-height:10.25;font-family:'Airstrip Four';-inkscape-font-specification:'Airstrip Four';letter-spacing:0px;word-spacing:0px;fill:#484d42;fill-opacity:1"
         id="path4544" />
      <path
         d="m 48.231362,46.352462 q 0,-2.601047 -2.532145,-2.601047 l -8.64719,-0.01723 q -2.635498,0 -2.635498,-2.635498 v -6.752388 q 0,-2.721625 2.514919,-2.7044 h 8.64719 q 2.618273,-0.05168 2.635498,-2.566596 0,-2.583822 -2.7044,-2.566596 H 37.00035 q -7.751465,0 -7.751465,7.820367 v 6.649034 q 0,7.92372 7.751465,7.92372 h 8.64719 q 2.583822,0 2.583822,-2.549371 z"
         style="font-style:normal;font-variant:normal;font-weight:normal;font-stretch:normal;font-size:35.27777863px;line-height:10.25;font-family:'Airstrip Four';-inkscape-font-specification:'Airstrip Four';letter-spacing:0px;word-spacing:0px;fill:#484d42;fill-opacity:1"
         id="path4546" />
      <path
         d="m 51.71091,46.28356 q 0,2.618273 2.549371,2.618273 2.618272,0 2.618272,-2.618273 V 31.676355 h 6.028917 q 2.618273,0 2.618273,2.652724 V 46.28356 q 0,2.618273 2.583822,2.618273 2.583821,0 2.583821,-2.583822 V 34.432432 q 0,-7.92372 -7.751465,-7.92372 h -6.063368 v -4.30637 q 0,-2.635498 -2.583821,-2.635498 -2.583822,0 -2.583822,2.566596 z"
         style="font-style:normal;font-variant:normal;font-weight:normal;font-stretch:normal;font-size:35.27777863px;line-height:10.25;font-family:'Airstrip Four';-inkscape-font-specification:'Airstrip Four';letter-spacing:0px;word-spacing:0px;fill:#484d42;fill-opacity:1"
         id="path4548" />
      <path
         d="m 93.155407,46.352462 q 0,-2.601047 -2.532145,-2.601047 l -8.64719,-0.01723 q -2.635498,0 -2.635498,-2.635498 v -0.861274 l 7.785916,-0.01723 q 2.583822,0 2.566596,-2.51492 0,-2.635498 -2.618272,-2.669949 l -7.73424,0.03445 v -3.445095 l 11.16211,0.01722 q 2.618272,-0.05168 2.635498,-2.566596 0,-2.583822 -2.7044,-2.566596 h -13.67703 q -2.583821,0 -2.583821,2.583821 v 11.88558 q 0,7.92372 7.751465,7.92372 h 8.64719 q 2.583821,0 2.583821,-2.549371 z"
         style="font-style:normal;font-variant:normal;font-weight:normal;font-stretch:normal;font-size:35.27777863px;line-height:10.25;font-family:'Airstrip Four';-inkscape-font-specification:'Airstrip Four';letter-spacing:0px;word-spacing:0px;fill:#484d42;fill-opacity:1"
         id="path4550" />
      <path
         d="M 115.61743,46.28356 V 22.13344 q 0,-2.566596 -2.58382,-2.566596 -2.58383,0 -2.58383,2.635498 v 4.30637 h -6.06336 q -7.751468,0 -7.751468,7.92372 v 6.717936 q 0,7.751465 7.803138,7.751465 h 8.64719 q 2.53215,0 2.53215,-2.618273 z m -11.19656,-2.566596 q -2.61828,0 -2.61828,-2.497694 v -6.890191 q 0,-2.652724 2.6355,-2.652724 h 6.01169 v 12.040609 z"
         style="font-style:normal;font-variant:normal;font-weight:normal;font-stretch:normal;font-size:35.27777863px;line-height:10.25;font-family:'Airstrip Four';-inkscape-font-specification:'Airstrip Four';letter-spacing:0px;word-spacing:0px;fill:#484d42;fill-opacity:1"
         id="path4552" />
      <path
         d="m 138.07945,29.075308 q 0,-2.618273 -2.53215,-2.618273 -2.63549,0 -2.63549,2.618273 v 14.607205 h -6.0117 q -2.63549,0 -2.63549,-2.652723 V 29.075308 q 0,-2.618273 -2.58383,-2.618273 -2.58382,0 -2.58382,2.583822 v 11.88558 q 0,7.92372 7.75147,7.92372 l 8.64719,0.01722 q 2.58382,0 2.58382,-2.549371 z"
         style="font-style:normal;font-variant:normal;font-weight:normal;font-stretch:normal;font-size:35.27777863px;line-height:10.25;font-family:'Airstrip Four';-inkscape-font-specification:'Airstrip Four';letter-spacing:0px;word-spacing:0px;fill:#484d42;fill-opacity:1"
         id="path4554" />
      <path
         d="m 141.55899,22.167891 v 24.098444 q 0,2.566596 2.58383,2.601047 l 2.58382,-0.03445 q 2.58382,-0.05168 2.58382,-2.652723 0.0517,-2.51492 -2.58382,-2.51492 V 22.167891 q 0,-2.635498 -2.61828,-2.635498 -2.54937,0 -2.54937,2.635498 z"
         style="font-style:normal;font-variant:normal;font-weight:normal;font-stretch:normal;font-size:35.27777863px;line-height:10.25;font-family:'Airstrip Four';-inkscape-font-specification:'Airstrip Four';letter-spacing:0px;word-spacing:0px;fill:#484d42;fill-opacity:1"
         id="path4556" />
      <path
         d="m 171.8414,46.352462 q 0,-2.601047 -2.53215,-2.601047 l -8.64719,-0.01723 q -2.6355,0 -2.6355,-2.635498 v -0.861274 l 7.78592,-0.01723 q 2.58382,0 2.5666,-2.51492 0,-2.635498 -2.61828,-2.669949 l -7.73424,0.03445 v -3.445095 l 11.16211,0.01722 q 2.61828,-0.05168 2.6355,-2.566596 0,-2.583822 -2.7044,-2.566596 h -13.67703 q -2.58382,0 -2.58382,2.583821 v 11.88558 q 0,7.92372 7.75147,7.92372 h 8.64719 q 2.58382,0 2.58382,-2.549371 z"
         style="font-style:normal;font-variant:normal;font-weight:normal;font-stretch:normal;font-size:35.27777863px;line-height:10.25;font-family:'Airstrip Four';-inkscape-font-specification:'Airstrip Four';letter-spacing:0px;word-spacing:0px;fill:#484d42;fill-opacity:1"
         id="path4558" />
      <path
         d="m 192.54642,29.075308 q 0,-2.549371 -2.58382,-2.549371 l -6.89019,-0.01722 q -7.75147,0 -7.69979,6.821289 -0.0172,6.976319 7.78591,6.941868 h 1.67087 q 2.54938,0.03445 2.54938,1.739773 -0.0345,1.756999 -2.60105,1.756999 h -6.95909 q -2.48047,0.01722 -2.4977,2.7044 0.0172,2.394341 2.51492,2.377116 l 6.97632,0.01722 q 7.66534,-0.01722 7.69979,-6.890191 0.0172,-6.769613 -7.69979,-6.890191 h -1.67087 q -2.65273,0 -2.65273,-1.653646 0,-1.756999 2.6355,-1.756999 h 6.90742 q 2.46324,-0.05168 2.51492,-2.601047 z"
         style="font-style:normal;font-variant:normal;font-weight:normal;font-stretch:normal;font-size:35.27777863px;line-height:10.25;font-family:'Airstrip Four';-inkscape-font-specification:'Airstrip Four';letter-spacing:0px;word-spacing:0px;fill:#484d42;fill-opacity:1"
         id="path4560" />
    </g>
    <path
       sodipodi:nodetypes="cscccsccccccccsssscsccccscscscccscscscsccccccccccccccccccsccccccccccccc"
       style="opacity:1;fill:url(#linearGradient4515);fill-opacity:1;fill-rule:nonzero;stroke-width:0.13440743"
       d="m 195.61443,57.732587 c -0.0495,-0.0495 -0.09,-10.2044 -0.09,-22.56645 0,-20.956348 0.0153,-22.482338 0.22659,-22.563408 0.12463,-0.0478 1.22845,-0.0819 2.45294,-0.0758 1.22448,0.006 2.33219,0.009 2.46155,0.005 0.21094,-0.005 0.23522,-0.17631 0.23522,-1.65768 0,-1.8837498 0.21681,-2.9343798 0.77911,-3.7754898 1.36573,-2.0429 5.23971,-2.40799 7.25421,-0.68365 0.3038,0.26004 0.72208,0.81903 0.9295,1.24219 0.35263,0.71938 0.38034,0.90041 0.42632,2.7854898 0.0319,1.31041 0.10277,2.05068 0.20228,2.11486 0.27183,0.17531 2.72741,0.11973 2.87805,-0.0651 0.0753,-0.0924 0.16118,-1.07526 0.19086,-2.18412 0.0497,-1.8569698 0.0818,-2.0698398 0.40675,-2.6966798 0.77765,-1.50021 2.17169,-2.24772 4.20427,-2.2544 1.8653,-0.006 3.17784,0.57904 3.96526,1.76782 0.59575,0.89942 0.72007,1.50599 0.69968,3.4136698 -0.0229,2.14343 -0.0391,2.12172 1.58362,2.12172 0.65399,0 1.28474,-0.0367 1.40167,-0.0816 0.1753,-0.0673 0.21261,-0.33068 0.21261,-1.50108 0,-2.7018498 0.49167,-4.0671298 1.78292,-4.9507898 1.84318,-1.26137 5.0557,-1.01132 6.50985,0.50672 0.83564,0.87234 1.03758,1.56522 1.09055,3.7417998 0.0261,1.0719 0.0958,1.9993 0.15502,2.06089 0.0592,0.0616 1.19415,0.10479 2.52218,0.096 1.91364,-0.0127 2.44682,0.0229 2.56985,0.17108 0.11631,0.14016 0.14671,5.811508 0.12124,22.618838 l -0.034,22.4318 -22.52406,0.034 c -12.38823,0.0187 -22.56455,-0.006 -22.61405,-0.056 z m 41.36031,-3.88679 c 0.0449,-0.11693 0.0816,-7.12091 0.0816,-15.56438 0,-11.76106 -0.0377,-15.3895 -0.16129,-15.51306 -0.12389,-0.12389 -4.45391,-0.16129 -18.67164,-0.16129 -10.18069,0 -18.60603,0.0367 -18.72296,0.0816 -0.19217,0.0737 -0.2126,1.57641 -0.2126,15.63606 0,8.55496 0.0403,15.59481 0.0896,15.64409 0.0493,0.0493 8.51047,0.0896 18.80265,0.0896 16.93988,0 18.72079,-0.0202 18.79464,-0.2126 z m -30.09749,-34.78994 c 0.26201,-0.10948 0.5614,-0.38202 0.70132,-0.63844 0.22356,-0.4097 0.24212,-0.82486 0.22009,-4.925468 -0.0206,-3.8332498 -0.0547,-4.5248698 -0.23708,-4.8031898 -0.33724,-0.51469 -0.81177,-0.75158 -1.64937,-0.82338 -1.03972,-0.0891 -1.75505,0.16207 -2.15534,0.75691 l -0.31227,0.46402 0.0386,4.5991998 0.0386,4.599188 0.33602,0.36138 c 0.18481,0.19877 0.45698,0.41142 0.60483,0.47258 0.43884,0.18151 1.92234,0.14293 2.41473,-0.0628 z m 12.71788,-0.11543 c 0.78538,-0.52927 0.79053,-0.56376 0.7927,-5.309378 0.002,-4.7358898 -0.0377,-5.0267898 -0.75373,-5.4959298 -0.50544,-0.33117 -2.21919,-0.33976 -2.82076,-0.0141 -0.756,0.40922 -0.79178,0.66016 -0.79178,5.5539698 0,4.073578 0.0203,4.472458 0.24536,4.815828 0.33863,0.51669 0.9416,0.74463 1.98609,0.75082 0.70686,0.004 0.97989,-0.0571 1.34212,-0.30118 z m 12.41631,0.11543 c 0.26403,-0.11032 0.55906,-0.38004 0.69834,-0.63844 0.22076,-0.40956 0.23768,-0.82825 0.20004,-4.950058 -0.0444,-4.8619298 -0.0429,-4.8520198 -0.78892,-5.3408198 -0.51622,-0.33824 -2.25543,-0.33286 -2.77654,0.009 -0.71599,0.46914 -0.75588,0.76004 -0.75372,5.4959398 0.002,4.745618 0.007,4.780098 0.7927,5.309378 0.54201,0.36526 1.88861,0.4244 2.6281,0.11542 z"
       id="path4578"
       inkscape:connector-curvature="0" />
    <g
       aria-label="U"
       transform="scale(1.1587954,0.86296512)"
       style="font-style:normal;font-variant:normal;font-weight:normal;font-stretch:normal;font-size:28.61580849px;line-height:1.25;font-family:'Century Gothic';-inkscape-font-specification:'Century Gothic';text-align:center;letter-spacing:0px;word-spacing:0px;text-anchor:middle;fill:#99df00;fill-opacity:1;stroke:none;stroke-width:0.30659792"
       id="text4542">
      <path
         d="m 199.26261,34.470016 q 0,-3.034042 -2.93424,-3.034042 -3.054,0 -3.054,3.034042 v 16.926762 h -6.96633 q -3.054,0 -3.054,-3.073964 V 34.470016 q 0,-3.034042 -2.99412,-3.034042 -2.99412,0 -2.99412,2.99412 v 13.772955 q 0,9.18197 8.98236,9.18197 l 10.02033,0.01996 q 2.99412,0 2.99412,-2.954199 z"
         style="font-style:normal;font-variant:normal;font-weight:normal;font-stretch:normal;font-size:40.87972641px;font-family:'Airstrip Four';-inkscape-font-specification:'Airstrip Four';fill:#99df00;fill-opacity:1;stroke-width:0.30659792"
         id="path4563" />
    </g>
  </g>
</svg>
